# xmcd CD database file
#
# Track frame offsets:
#	150
#	16473
#	29496
#	42819
#	56892
#	71040
#	85863
#	101286
#	113784
#	124782
#	138705
#
# Disc length: 2024 seconds
#
# Revision: 0
# Processed by: cddbd v1.5.2PL0 Copyright (c) Steve Scherf et al.
# Submitted via: CDex 1.70beta2
#
DISCID=9807e60b
DTITLE=Munro, Beve - Cdn. - Sherwood Park, AB - Honkytonks and Teardrops
DYEAR=2008
DGENRE=Country
TTITLE0=How I Love Them Old Songs
TTITLE1=Wasted Years
TTITLE2=Echo Bonita
TTITLE3=If I Ever Need a Lady I'll Call You
TTITLE4=Stolen Moments wt. Donna Lee
TTITLE5=To Get You Off My Mind
TTITLE6=So They Cant See Me Cry
TTITLE7=This Heart Inside of Me
TTITLE8=Rosie's Boy
TTITLE9=If You Dont Laugh I Promise I Won't Cry
TTITLE10=Yonder Comes a Sucker
EXTD=YEAR: 2008
EXTT0=
EXTT1=
EXTT2=
EXTT3=
EXTT4=
EXTT5=
EXTT6=
EXTT7=
EXTT8=
EXTT9=
EXTT10=
PLAYORDER=
